<svg version="1.1" id="Layer_1" xmlns="http://www.w3.org/2000/svg" xmlns:xlink="http://www.w3.org/1999/xlink" x="0px" y="0px"
	 width="100%" viewBox="0 0 200 200" enable-background="new 0 0 200 200" xml:space="preserve">
<path fill="#031231" opacity="1.000000" stroke="none" 
	d="
M201.000000,81.000000 
	C201.000000,93.354225 201.000000,105.708458 200.644196,118.640503 
	C199.872208,119.891846 199.308929,120.515785 199.062576,121.246567 
	C196.536819,128.738953 194.878891,136.648605 191.432236,143.684189 
	C176.643478,173.871994 152.873047,192.776016 119.535477,199.124847 
	C118.605034,199.302048 117.841415,200.355286 117.000000,201.000000 
	C105.645775,201.000000 94.291542,201.000000 82.377243,200.642883 
	C77.032646,198.610245 72.207863,197.040787 67.470039,195.242218 
	C32.899776,182.118805 11.349856,157.603241 3.010665,121.514297 
	C2.719727,120.255219 1.686993,119.167557 1.000000,118.000000 
	C1.000000,105.979103 1.000000,93.958214 1.354659,81.381538 
	C2.455624,79.047897 3.183509,77.262047 3.951308,75.493515 
	C8.039696,66.076431 11.054125,55.984940 16.442154,47.380421 
	C30.922264,24.256149 52.177517,9.916044 78.557495,3.082681 
	C79.801369,2.760475 80.856804,1.710857 82.000000,1.000000 
	C94.354225,1.000000 106.708458,1.000000 119.613335,1.354657 
	C125.280983,3.418504 130.490005,4.894834 135.500031,6.874684 
	C167.996262,19.716431 189.026962,42.931820 198.404556,76.665596 
	C198.839432,78.230003 200.115646,79.560539 201.000000,81.000000 
M124.513634,141.568878 
	C124.547112,141.129990 124.580582,140.691116 124.608116,139.800323 
	C124.659706,139.494781 124.786919,139.224899 125.287361,138.843414 
	C125.513161,138.526642 125.472626,138.245407 125.031250,137.484039 
	C124.978516,137.314407 124.925774,137.144760 125.215919,136.531342 
	C125.307159,136.368103 125.398392,136.204880 126.075272,135.722885 
	C125.769775,133.153290 125.464279,130.583710 124.926559,127.502380 
	C124.882896,127.132759 124.839226,126.763130 124.800179,125.866859 
	C124.617065,125.575851 124.433952,125.284836 123.962433,124.555107 
	C123.887680,124.216530 123.812920,123.877953 123.702393,122.943924 
	C123.474838,122.627754 123.247292,122.311584 122.809593,121.772598 
	C122.809593,121.772598 122.782028,121.467575 122.675018,120.887169 
	C122.409111,120.608330 122.143204,120.329498 121.483208,119.761543 
	C121.261147,119.513092 121.110283,119.227089 120.876343,118.502724 
	C120.717636,118.247498 120.493904,118.078186 119.682205,117.715317 
	C118.818588,118.473351 117.954979,119.231384 116.538193,120.423111 
	C116.150185,121.728821 115.762177,123.034523 115.073944,124.286728 
	C115.073944,124.286728 115.366562,124.373329 114.630569,124.117149 
	C113.662582,123.739723 112.694595,123.362305 111.897865,122.255638 
	C112.981323,119.521019 114.064781,116.786400 115.804230,113.790291 
	C116.391449,111.730698 116.978676,109.671104 117.654213,107.037445 
	C117.568436,106.661232 117.482658,106.285019 117.743462,105.341721 
	C118.164566,104.563179 118.585663,103.784630 119.569229,102.770195 
	C120.406548,101.905174 121.243866,101.040154 122.729790,100.083450 
	C123.497406,99.414352 124.265015,98.745255 125.740776,97.953270 
	C134.287445,93.727699 140.387665,87.388206 143.128891,77.380394 
	C143.482300,76.608406 143.835709,75.836426 144.752701,74.826599 
	C145.035660,74.144951 145.318619,73.463295 145.806046,72.042351 
	C146.189056,70.029617 146.572083,68.016876 147.283875,65.267822 
	C146.961136,61.750980 146.638397,58.234142 146.802063,54.396854 
	C145.836395,50.500217 144.870728,46.603580 143.905060,42.706947 
	C143.146790,42.822807 142.388519,42.938667 141.630249,43.054527 
	C141.630249,46.078304 141.630249,49.102077 141.362305,52.735104 
	C141.329041,53.175709 141.295776,53.616314 140.874420,54.480282 
	C140.789658,55.026752 140.704895,55.573227 140.232498,56.732910 
	C139.492050,58.483238 138.751602,60.233570 137.728729,62.586651 
	C137.007889,63.875057 136.287064,65.163467 134.969971,66.769142 
	C131.095459,70.440193 127.220963,74.111252 122.793159,77.864120 
	C122.227173,78.326553 121.661186,78.788986 120.444763,79.377899 
	C114.017868,83.910286 108.883987,89.470886 105.675003,97.289139 
	C105.170624,98.805153 104.666245,100.321167 103.724236,102.292809 
	C102.571144,102.192406 101.418053,102.092010 100.062592,101.354179 
	C100.014214,100.911957 99.965836,100.469734 100.283318,99.675873 
	C99.909866,99.104256 99.536407,98.532631 98.952896,97.582603 
	C98.952896,97.582603 98.926414,97.150620 98.990517,96.379898 
	C97.732483,94.234299 96.474449,92.088692 94.730919,89.464745 
	C91.845428,86.938164 88.959938,84.411583 86.030342,81.971123 
	C86.030342,81.971123 86.114159,81.922768 85.949722,81.262199 
	C84.669426,80.455643 83.389137,79.649078 82.056572,78.949409 
	C82.056572,78.949409 82.153183,78.879959 81.992622,78.228523 
	C79.685013,76.444588 77.377396,74.660660 74.682503,72.258949 
	C74.128960,71.790718 73.575409,71.322487 73.182655,70.882210 
	C73.182655,70.882210 73.067223,70.911301 72.635094,70.326118 
	C72.416183,70.221855 72.197266,70.117592 71.746735,69.368423 
	C70.669258,68.215378 69.591789,67.062325 68.422997,65.344528 
	C67.898438,64.400108 67.373871,63.455688 66.844742,62.247013 
	C66.844742,62.247013 66.640610,62.079128 66.525215,61.352848 
	C64.941765,55.314854 63.358311,49.276863 61.774857,43.238869 
	C61.419037,43.088024 61.063217,42.937180 60.707394,42.786331 
	C59.614643,46.895386 58.521893,51.004444 57.250305,55.745403 
	C57.252377,56.181877 57.254448,56.618347 56.931908,57.641872 
	C57.035069,59.397823 57.138233,61.153778 57.157391,63.591709 
	C57.248211,64.037766 57.339031,64.483826 57.236485,65.637413 
	C57.720139,67.246941 58.203789,68.856468 58.697441,70.797340 
	C58.697441,70.797340 58.944595,71.018265 58.895939,71.693169 
	C58.971313,71.905754 59.046692,72.118340 58.990005,72.237213 
	C58.990005,72.237213 59.133125,72.355751 59.200150,73.118774 
	C60.743320,75.527962 62.286495,77.937157 63.821140,80.716080 
	C63.821140,80.716080 64.051338,81.005539 63.947136,81.502144 
	C63.997757,81.663521 64.048386,81.824905 64.031586,82.704918 
	C67.011223,90.250717 73.409462,94.539795 79.708176,98.797180 
	C84.145645,101.796532 87.565468,105.315865 88.936203,110.639580 
	C89.833801,114.125717 90.989464,117.545410 91.677658,121.339851 
	C92.010696,121.925797 92.343735,122.511734 92.835709,123.810402 
	C92.906372,124.536385 92.977043,125.262360 92.597816,126.445824 
	C91.526978,127.248093 90.456139,128.050369 89.197151,128.938324 
	C89.197151,128.938324 89.002098,129.006836 89.087044,128.478455 
	C89.018845,128.313614 88.950653,128.148788 88.929413,127.246918 
	C88.901443,126.509239 88.873474,125.771553 89.285309,124.527100 
	C89.207047,123.396973 89.382675,122.169075 88.993591,121.158630 
	C88.339493,119.459946 87.326408,117.899498 86.464355,116.280899 
	C85.308914,117.842484 84.153473,119.404076 82.670822,121.589157 
	C78.556511,129.336212 77.836090,137.140213 82.240913,145.505829 
	C82.339005,145.846512 82.561127,146.055267 82.965958,146.045303 
	C82.965958,146.045303 82.873352,146.094269 82.924385,146.808716 
	C85.265579,149.929047 87.606781,153.049362 89.983109,156.748291 
	C90.299767,157.202118 90.616425,157.655960 91.156357,158.724197 
	C92.131172,159.329300 93.105988,159.934402 94.080811,160.539520 
	C94.657967,160.236191 95.235123,159.932861 95.812286,159.629532 
	C94.335091,153.334488 92.857895,147.039429 91.247002,139.938889 
	C90.866524,137.281693 90.486046,134.624481 90.670464,131.732864 
	C92.138786,132.612900 93.607117,133.492935 95.661667,134.724335 
	C96.041710,133.246231 96.379196,131.933640 96.768387,129.971756 
	C96.918137,129.338593 97.067894,128.705414 97.702995,127.922966 
	C97.778328,127.277573 97.853668,126.632187 98.049858,125.270409 
	C98.448418,123.872169 98.846970,122.473938 99.822701,120.834999 
	C100.887299,119.879745 101.951897,118.924492 103.145187,118.629234 
	C103.865387,119.750465 104.585587,120.871689 104.836143,122.305595 
	C105.190292,123.193428 105.544441,124.081268 105.940651,125.651657 
	C105.946739,126.107529 105.952827,126.563393 105.307945,127.210289 
	C102.183647,129.733795 103.241821,132.189377 105.309517,134.075623 
	C104.550308,136.177307 103.953964,137.828125 103.276100,139.793823 
	C103.276100,139.793823 103.032555,140.009399 102.336174,140.165970 
	C101.664818,141.618057 100.993454,143.070160 100.204865,145.030899 
	C100.037086,145.334518 99.869308,145.638138 99.118668,146.159012 
	C98.788910,147.783081 98.459160,149.407150 98.162827,151.692123 
	C98.103798,152.128311 98.044769,152.564499 97.709679,153.187256 
	C97.527061,153.530502 97.609619,153.801163 98.162498,154.446945 
	C98.162498,154.446945 98.374977,154.891235 98.110641,155.707886 
	C98.085373,157.136780 98.060097,158.565674 97.685547,160.331268 
	C97.993172,160.923935 98.300789,161.516602 98.801445,162.783783 
	C98.975967,163.463303 99.150490,164.142822 99.259079,165.578293 
	C100.088417,167.711853 100.917763,169.845398 101.747108,171.978958 
	C102.269646,171.935486 102.792175,171.892014 103.314705,171.848541 
	C104.462517,168.858032 105.610321,165.867508 107.047401,162.281876 
	C108.576828,160.492294 110.106255,158.702728 112.208603,156.520538 
	C115.072304,153.306976 117.936012,150.093430 120.985268,146.952789 
	C120.985268,146.952789 121.142570,147.075272 121.789757,146.891724 
	C122.596939,145.316498 123.404121,143.741287 124.513634,141.568878 
M49.376579,75.437180 
	C49.993530,71.769272 53.448383,68.387192 51.191154,64.429810 
	C50.517052,64.239998 49.842949,64.050194 49.168842,63.860390 
	C48.037216,67.175247 46.905590,70.490105 45.322533,74.461731 
	C45.231220,80.963577 45.139908,87.465424 45.040424,94.630325 
	C46.826538,98.115883 48.277477,95.691963 48.519123,94.039124 
	C48.849285,91.780838 48.143208,89.371056 47.920624,86.218460 
	C47.918480,85.140366 47.916336,84.062263 48.378117,82.432365 
	C48.451591,81.249832 48.525066,80.067291 48.732838,78.167191 
	C48.785778,77.439903 48.838715,76.712608 49.376579,75.437180 
M112.909271,58.347050 
	C112.677742,57.954384 112.446213,57.561718 112.332253,56.840611 
	C112.250404,56.571098 112.069992,56.456226 111.388382,55.914326 
	C104.716354,49.850502 96.506912,50.755669 91.783806,58.501907 
	C91.520905,59.339447 91.258003,60.176983 90.567039,61.450481 
	C90.608429,62.022274 90.649826,62.594070 90.547035,63.729439 
	C90.602798,64.109406 90.658562,64.489372 90.424431,65.550323 
	C92.341026,73.595573 98.240143,77.487206 105.761795,75.668335 
	C112.246109,74.100319 115.478432,68.224213 113.829819,60.431644 
	C113.534988,59.967571 113.240158,59.503502 112.909271,58.347050 
M63.533226,128.466385 
	C66.496628,129.946991 67.909088,134.498398 74.115204,132.899048 
	C70.758644,130.107910 68.359138,128.112625 65.384277,125.754684 
	C62.573654,121.902344 59.862751,117.970619 56.895241,114.243172 
	C55.930794,113.031731 54.295536,112.354340 52.967094,111.432678 
	C53.128918,113.208397 52.662945,115.447182 53.568249,116.674500 
	C56.486763,120.631172 59.910435,124.215240 63.533226,128.466385 
M158.707275,71.358925 
	C157.335098,68.594849 157.699066,64.291466 151.883301,64.420700 
	C152.743820,66.621811 153.406326,68.316437 154.110062,70.796371 
	C155.138824,79.041870 156.167587,87.287361 157.196350,95.532852 
	C157.795670,95.605881 158.394974,95.678909 158.994293,95.751938 
	C159.601028,93.583321 160.832932,91.373764 160.694107,89.253975 
	C160.318054,83.512054 159.360016,77.808250 158.707275,71.358925 
M145.166641,118.549759 
	C140.962250,123.215134 136.757858,127.880508 132.553482,132.545883 
	C132.947052,132.896606 133.340622,133.247314 133.734207,133.598022 
	C137.036972,131.198471 140.765671,129.204224 143.533554,126.295631 
	C146.910522,122.746964 149.582947,118.497833 152.298538,114.379204 
	C152.752991,113.689972 151.880295,112.125702 151.620834,110.965759 
	C150.674835,111.430908 149.407501,111.657082 148.847870,112.409561 
	C147.574203,114.122108 146.647964,116.093033 145.166641,118.549759 
M106.112289,35.915951 
	C105.103813,34.245831 104.432884,31.792099 102.975418,31.164265 
	C101.893806,30.698334 99.578934,32.375378 98.274086,33.591972 
	C97.889122,33.950912 98.978577,37.022686 99.555122,37.075542 
	C101.516075,37.255306 103.549744,36.641834 106.112289,35.915951 
M47.141174,101.646866 
	C47.570774,103.534241 47.831768,105.494125 48.583725,107.242882 
	C48.720806,107.561684 51.492321,107.438408 51.931686,106.777397 
	C52.620346,105.741333 52.981892,103.373947 52.364849,102.824104 
	C51.208637,101.793793 49.252644,101.661011 47.141174,101.646866 
M93.258759,167.992584 
	C94.828178,171.053085 96.397591,174.113602 97.967010,177.174103 
	C98.709534,176.778488 99.452065,176.382889 100.194588,175.987274 
	C98.831215,172.984009 97.520424,169.953583 96.008812,167.026886 
	C95.882156,166.781647 94.404640,167.234131 93.258759,167.992584 
M153.731888,107.491440 
	C156.806915,107.773140 158.044174,106.011040 157.538605,103.357201 
	C157.369339,102.468758 155.491119,101.905876 154.394058,101.194176 
	C153.681961,102.771324 152.918610,104.329185 152.310425,105.945427 
	C152.213943,106.201859 152.816254,106.721237 153.731888,107.491440 
z"/>
<path fill="#000000" opacity="1.000000" stroke="none" 
	d="
M117.468658,201.000000 
	C117.841415,200.355286 118.605034,199.302048 119.535477,199.124847 
	C152.873047,192.776016 176.643478,173.871994 191.432236,143.684189 
	C194.878891,136.648605 196.536819,128.738953 199.062576,121.246567 
	C199.308929,120.515785 199.872208,119.891846 200.644196,119.109161 
	C201.000000,146.261108 201.000000,173.522217 201.000000,201.000000 
	C173.312820,201.000000 145.625061,201.000000 117.468658,201.000000 
z"/>
<path fill="#000000" opacity="1.000000" stroke="none" 
	d="
M1.000000,118.468658 
	C1.686993,119.167557 2.719727,120.255219 3.010665,121.514297 
	C11.349856,157.603241 32.899776,182.118805 67.470039,195.242218 
	C72.207863,197.040787 77.032646,198.610245 81.908585,200.642883 
	C55.072212,201.000000 28.144424,201.000000 1.000000,201.000000 
	C1.000000,173.646149 1.000000,146.291733 1.000000,118.468658 
z"/>
<path fill="#000000" opacity="1.000000" stroke="none" 
	d="
M201.000000,80.531342 
	C200.115646,79.560539 198.839432,78.230003 198.404556,76.665596 
	C189.026962,42.931820 167.996262,19.716431 135.500031,6.874684 
	C130.490005,4.894834 125.280983,3.418504 120.081993,1.354657 
	C146.926437,1.000000 173.852859,1.000000 201.000000,1.000000 
	C201.000000,27.353817 201.000000,53.708252 201.000000,80.531342 
z"/>
<path fill="#000000" opacity="1.000000" stroke="none" 
	d="
M81.531342,1.000000 
	C80.856804,1.710857 79.801369,2.760475 78.557495,3.082681 
	C52.177517,9.916044 30.922264,24.256149 16.442154,47.380421 
	C11.054125,55.984940 8.039696,66.076431 3.951308,75.493515 
	C3.183509,77.262047 2.455624,79.047897 1.354659,80.912880 
	C1.000000,54.405987 1.000000,27.811975 1.000000,1.000000 
	C27.687166,1.000000 54.374924,1.000000 81.531342,1.000000 
z"/>
<path fill="#0F4AA8" opacity="1.000000" stroke="none" 
	d="
M93.047707,125.988342 
	C92.977043,125.262360 92.906372,124.536385 92.807953,123.163467 
	C92.529968,122.009315 92.279755,121.502090 92.029541,120.994865 
	C90.989464,117.545410 89.833801,114.125717 88.936203,110.639580 
	C87.565468,105.315865 84.145645,101.796532 79.708176,98.797180 
	C73.409462,94.539795 67.011223,90.250717 64.274292,82.240768 
	C64.516998,81.776627 64.946289,81.590240 65.027115,81.682556 
	C65.107948,81.774872 65.309860,81.914330 65.399368,82.227615 
	C68.447067,84.897545 71.323090,87.367386 74.380592,89.587257 
	C80.735191,94.200981 87.185989,98.682205 93.676659,103.563843 
	C94.486794,105.629585 95.217514,107.349380 96.002213,109.444855 
	C97.038902,112.894424 98.021614,115.968315 99.046112,119.380905 
	C99.140442,120.171623 99.192986,120.623665 99.245522,121.075699 
	C98.846970,122.473938 98.448418,123.872169 97.781647,125.833267 
	C97.414833,126.954842 97.316238,127.513542 97.217644,128.072250 
	C97.067894,128.705414 96.918137,129.338593 96.416458,130.348083 
	C95.058922,129.145706 94.053314,127.567024 93.047707,125.988342 
z"/>
<path fill="#3A319F" opacity="1.000000" stroke="none" 
	d="
M115.148239,114.051781 
	C114.064781,116.786400 112.981323,119.521019 111.557175,122.787888 
	C109.463959,124.553177 107.711441,125.786217 105.958923,127.019264 
	C105.952827,126.563393 105.946739,126.107529 105.975235,124.995110 
	C105.775139,123.556679 105.540466,122.774796 105.305786,121.992920 
	C104.585587,120.871689 103.865387,119.750465 103.120148,117.883224 
	C103.033020,115.743904 102.970940,114.350594 102.930496,112.525223 
	C102.933655,110.072906 102.915161,108.052643 103.061111,105.811584 
	C103.694443,105.322090 104.163338,105.053368 104.730774,105.241806 
	C105.026520,108.880997 105.223717,112.063034 105.420921,115.245064 
	C105.841751,115.390099 106.262573,115.535133 106.683395,115.680168 
	C110.376579,102.764114 118.713425,94.447655 130.958466,90.399338 
	C128.939880,93.180069 126.986259,95.628113 125.032631,98.076157 
	C124.265015,98.745255 123.497406,99.414352 122.182678,99.907043 
	C120.759293,100.822456 119.883026,101.914268 119.006760,103.006088 
	C118.585663,103.784630 118.164566,104.563179 117.326355,105.660492 
	C116.594002,106.646149 116.278763,107.313019 115.963249,108.366966 
	C115.691399,110.519951 115.419815,112.285866 115.148239,114.051781 
z"/>
<path fill="#5E58DA" opacity="1.000000" stroke="none" 
	d="
M131.023422,90.066666 
	C118.713425,94.447655 110.376579,102.764114 106.683395,115.680168 
	C106.262573,115.535133 105.841751,115.390099 105.420921,115.245064 
	C105.223717,112.063034 105.026520,108.880997 104.786270,104.917976 
	C104.549431,103.370384 104.355652,102.603775 104.161865,101.837173 
	C104.666245,100.321167 105.170624,98.805153 106.322510,97.161652 
	C107.593872,97.008881 108.217728,96.983597 108.964165,97.280151 
	C110.468636,97.692078 112.389084,98.401672 113.131538,97.756218 
	C115.368942,95.811150 117.148041,93.338905 119.382904,90.926727 
	C120.773499,90.190460 121.887054,89.599693 123.418137,89.017639 
	C126.987221,88.442978 130.138794,87.859604 133.186813,87.562653 
	C132.396652,88.588272 131.710037,89.327469 131.023422,90.066666 
z"/>
<path fill="#2DAEFC" opacity="1.000000" stroke="none" 
	d="
M64.051338,81.005539 
	C64.051338,81.005539 63.821140,80.716080 63.866642,80.147079 
	C64.919373,78.046196 65.926598,76.514305 67.288528,75.040840 
	C70.163017,76.622818 72.558693,78.456345 75.256073,79.536339 
	C76.562431,80.059395 78.434799,79.168816 80.401291,78.929764 
	C81.218842,78.920837 81.686012,78.900398 82.153183,78.879959 
	C82.153183,78.879959 82.056572,78.949409 82.134735,79.236160 
	C83.513313,80.322861 84.813736,81.122818 86.114159,81.922768 
	C86.114159,81.922768 86.030342,81.971123 86.092613,82.272720 
	C88.141983,85.043739 90.129089,87.513176 91.796974,90.154678 
	C89.651810,90.886887 87.825859,91.447029 85.754944,91.783241 
	C80.652084,84.416374 73.626175,81.814064 65.309860,81.914330 
	C65.309860,81.914330 65.107948,81.774872 64.903198,81.555649 
	C64.508926,81.175026 64.293221,81.064728 64.051338,81.005539 
z"/>
<path fill="#30B0F8" opacity="1.000000" stroke="none" 
	d="
M124.873024,136.975128 
	C124.925774,137.144760 124.978516,137.314407 124.971817,137.974884 
	C124.938179,138.640717 124.963966,138.815704 124.989754,138.990677 
	C124.786919,139.224899 124.659706,139.494781 124.435364,139.999146 
	C124.262619,140.197952 123.907814,140.235519 123.786682,140.089737 
	C123.472107,140.719238 123.278679,141.494522 123.024330,142.591171 
	C122.356468,144.300110 121.749519,145.687698 121.142570,147.075272 
	C121.142570,147.075272 120.985268,146.952789 120.562309,146.979233 
	C117.741920,148.686829 115.344490,150.367981 113.026947,151.700928 
	C114.095947,149.243423 115.085068,147.134125 116.302979,144.738220 
	C116.718567,142.985916 116.905357,141.520233 117.377571,139.848511 
	C118.111092,138.091782 118.559189,136.541107 119.012344,134.568573 
	C119.351074,130.754379 119.039970,127.736755 114.897491,126.643570 
	C115.086281,125.666443 115.226425,125.019882 115.366562,124.373329 
	C115.366562,124.373329 115.073944,124.286728 115.463943,124.212326 
	C116.208763,123.756622 116.563576,123.375313 117.292862,123.020172 
	C118.496315,123.896217 119.259705,124.825371 120.169174,125.577995 
	C121.649475,126.802994 123.225273,127.912598 124.875793,129.445007 
	C125.006729,130.859314 125.022629,131.899506 124.820877,133.180252 
	C124.693153,134.605591 124.783089,135.790359 124.873024,136.975128 
z"/>
<path fill="#897DF6" opacity="1.000000" stroke="none" 
	d="
M144.189133,75.064445 
	C143.835709,75.836426 143.482300,76.608406 142.761444,77.794823 
	C141.356522,79.189644 140.319031,80.170036 138.885681,81.124466 
	C133.202637,80.690826 128.414520,82.117470 123.587418,85.021965 
	C121.066788,85.005882 118.990013,85.000084 117.076096,84.707687 
	C118.524376,82.697868 119.809792,80.974648 121.095200,79.251419 
	C121.661186,78.788986 122.227173,78.326553 123.521118,77.864319 
	C130.755844,76.590584 137.262634,75.316635 143.845520,74.309967 
	C144.010803,74.739647 144.099976,74.902046 144.189133,75.064445 
z"/>
<path fill="#37B6F0" opacity="1.000000" stroke="none" 
	d="
M82.277412,145.030853 
	C77.836090,137.140213 78.556511,129.336212 83.137924,121.206421 
	C84.742020,120.613129 85.879021,120.402557 86.833229,120.518921 
	C86.167107,124.627159 85.683762,128.408447 85.205299,132.488510 
	C85.216003,133.185638 85.221832,133.584015 84.989441,134.183685 
	C84.929901,135.258896 85.108582,136.132782 85.326462,137.384079 
	C85.909805,140.512192 86.453949,143.262894 86.585670,146.018005 
	C85.073288,146.046341 83.973320,146.070312 82.873352,146.094269 
	C82.873352,146.094269 82.965958,146.045303 82.904846,145.868683 
	C82.737228,145.401199 82.548454,145.180786 82.277412,145.030853 
z"/>
<path fill="#8C80E3" opacity="1.000000" stroke="none" 
	d="
M143.769409,74.042702 
	C137.262634,75.316635 130.755844,76.590584 123.797760,77.823410 
	C127.220963,74.111252 131.095459,70.440193 135.483246,66.969200 
	C139.655396,71.681793 143.102509,71.238136 146.205597,65.903900 
	C146.623306,65.948090 146.789200,65.976112 146.955093,66.004143 
	C146.572083,68.016876 146.189056,70.029617 145.412506,72.450531 
	C144.602463,73.253380 144.185944,73.648048 143.769409,74.042702 
z"/>
<path fill="#4740A0" opacity="1.000000" stroke="none" 
	d="
M145.373596,118.254356 
	C146.647964,116.093033 147.574203,114.122108 148.847870,112.409561 
	C149.407501,111.657082 150.674835,111.430908 151.620834,110.965759 
	C151.880295,112.125702 152.752991,113.689972 152.298538,114.379204 
	C149.582947,118.497833 146.910522,122.746964 143.533554,126.295631 
	C140.765671,129.204224 137.036972,131.198471 133.734207,133.598022 
	C133.340622,133.247314 132.947052,132.896606 132.553482,132.545883 
	C136.757858,127.880508 140.962250,123.215134 145.373596,118.254356 
z"/>
<path fill="#332A7D" opacity="1.000000" stroke="none" 
	d="
M158.632782,72.089333 
	C159.360016,77.808250 160.318054,83.512054 160.694107,89.253975 
	C160.832932,91.373764 159.601028,93.583321 158.994293,95.751938 
	C158.394974,95.678909 157.795670,95.605881 157.196350,95.532852 
	C156.167587,87.287361 155.138824,79.041870 154.419983,70.421448 
	C156.030853,70.727455 157.331818,71.408394 158.632782,72.089333 
z"/>
<path fill="#1562C7" opacity="1.000000" stroke="none" 
	d="
M86.998085,146.013611 
	C86.453949,143.262894 85.909805,140.512192 85.486687,137.156860 
	C85.481018,135.695618 85.354340,134.839005 85.227661,133.982376 
	C85.221832,133.584015 85.216003,133.185638 85.602142,132.446701 
	C87.070328,132.056290 88.146545,132.006470 89.443588,131.949188 
	C89.664413,131.941742 90.105576,131.967285 90.105576,131.967285 
	C90.486046,134.624481 90.866524,137.281693 91.201050,140.782684 
	C91.314995,143.257507 91.651703,144.894226 91.599480,146.518448 
	C91.475151,150.385361 91.166992,154.246399 90.933083,158.109802 
	C90.616425,157.655960 90.299767,157.202118 89.979935,156.063812 
	C88.983871,152.257416 87.990982,149.135513 86.998085,146.013611 
z"/>
<path fill="#47ACCC" opacity="1.000000" stroke="none" 
	d="
M113.826797,61.006767 
	C115.478432,68.224213 112.246109,74.100319 105.761795,75.668335 
	C98.240143,77.487206 92.341026,73.595573 90.809372,65.317657 
	C91.698914,65.806999 92.203522,66.528992 92.777969,67.597099 
	C94.668892,72.255920 98.249634,73.902466 102.594658,74.030113 
	C106.130836,74.134010 109.052727,72.884323 110.560242,69.036880 
	C111.357574,68.017021 111.850601,67.101662 112.532417,65.884384 
	C112.806282,64.408318 112.891357,63.234161 112.973007,61.772018 
	C112.941338,61.294609 112.913109,61.105194 113.122269,60.918674 
	C113.359673,60.921570 113.826797,61.006767 113.826797,61.006767 
z"/>
<path fill="#1B7AEB" opacity="1.000000" stroke="none" 
	d="
M117.092148,140.054550 
	C116.905357,141.520233 116.718567,142.985916 115.953949,144.681290 
	C110.771973,143.608215 108.462051,146.107758 106.617340,150.045456 
	C104.498398,150.703903 102.741058,151.294525 100.652054,151.996597 
	C100.293793,150.188446 100.049774,148.956863 99.805145,147.425934 
	C99.770195,146.731644 99.735863,146.336700 99.701530,145.941757 
	C99.869308,145.638138 100.037086,145.334518 100.489685,144.683975 
	C101.023682,144.118622 101.307716,143.964432 102.029137,143.901855 
	C105.787407,144.829437 108.576630,144.421539 111.255905,141.697937 
	C112.486526,140.446960 115.103729,140.560028 117.092148,140.054550 
z"/>
<path fill="#082856" opacity="1.000000" stroke="none" 
	d="
M114.998566,124.245239 
	C115.226425,125.019882 115.086281,125.666443 114.625847,126.821808 
	C111.728859,130.522339 109.152168,133.714081 106.306496,137.037323 
	C105.144211,137.938873 104.250916,138.708908 103.357620,139.478958 
	C103.953964,137.828125 104.550308,136.177307 105.309517,134.075623 
	C103.241821,132.189377 102.183647,129.733795 105.633438,127.114777 
	C107.711441,125.786217 109.463959,124.553177 111.471542,123.152512 
	C112.694595,123.362305 113.662582,123.739723 114.998566,124.245239 
z"/>
<path fill="#AF99ED" opacity="1.000000" stroke="none" 
	d="
M147.119476,65.635986 
	C146.789200,65.976112 146.623306,65.948090 146.064178,65.610245 
	C144.389786,61.256882 141.398010,61.164143 138.011154,61.983898 
	C138.751602,60.233570 139.492050,58.483238 140.643921,56.351501 
	C141.124405,55.332371 141.193466,54.694645 141.262527,54.056919 
	C141.295776,53.616314 141.329041,53.175709 141.752548,52.275761 
	C142.747055,50.974438 143.351303,50.132454 144.479828,48.559944 
	C145.258408,51.171291 145.787033,52.944298 146.315659,54.717300 
	C146.638397,58.234142 146.961136,61.750980 147.119476,65.635986 
z"/>
<path fill="#1B5AA7" opacity="1.000000" stroke="none" 
	d="
M63.139370,127.942947 
	C59.910435,124.215240 56.486763,120.631172 53.568249,116.674500 
	C52.662945,115.447182 53.128918,113.208397 52.967094,111.432678 
	C54.295536,112.354340 55.930794,113.031731 56.895241,114.243172 
	C59.862751,117.970619 62.573654,121.902344 65.593384,126.241165 
	C64.914787,127.132744 64.027077,127.537849 63.139370,127.942947 
z"/>
<path fill="#1E89F5" opacity="1.000000" stroke="none" 
	d="
M103.316864,139.636383 
	C104.250916,138.708908 105.144211,137.938873 106.748718,137.042450 
	C111.309044,136.274200 115.158157,135.632324 119.007278,134.990433 
	C118.559189,136.541107 118.111092,138.091782 117.377579,139.848511 
	C115.103729,140.560028 112.486526,140.446960 111.255905,141.697937 
	C108.576630,144.421539 105.787407,144.829437 102.117973,143.566650 
	C102.213699,142.139160 102.623123,141.074280 103.032547,140.009399 
	C103.032555,140.009399 103.276100,139.793823 103.316864,139.636383 
z"/>
<path fill="#38C0FD" opacity="1.000000" stroke="none" 
	d="
M80.050903,78.918259 
	C78.434799,79.168816 76.562431,80.059395 75.256073,79.536339 
	C72.558693,78.456345 70.163017,76.622818 67.182083,74.706207 
	C64.484230,73.198570 62.247520,72.083992 60.314228,70.740051 
	C64.404541,70.344902 68.191444,70.179115 71.978348,70.013329 
	C72.197266,70.117592 72.416183,70.221855 72.852623,70.598831 
	C73.070152,70.871552 73.021866,70.854256 73.021866,70.854256 
	C73.575409,71.322487 74.128960,71.790718 74.891907,72.921219 
	C76.751183,75.361748 78.401039,77.139999 80.050903,78.918259 
z"/>
<path fill="#372B8D" opacity="1.000000" stroke="none" 
	d="
M139.281540,81.150421 
	C140.319031,80.170036 141.356522,79.189644 142.683167,78.110138 
	C140.387665,87.388206 134.287445,93.727699 125.386703,98.014709 
	C126.986259,95.628113 128.939880,93.180069 130.958466,90.399338 
	C131.710037,89.327469 132.396652,88.588272 133.482574,87.430611 
	C135.681747,85.058235 137.481644,83.104324 139.281540,81.150421 
z"/>
<path fill="#5AE7FB" opacity="1.000000" stroke="none" 
	d="
M112.976440,62.060005 
	C112.891357,63.234161 112.806282,64.408318 112.109894,65.829277 
	C108.332291,66.380806 105.166008,66.685539 101.544022,66.991417 
	C98.294930,67.078705 95.501534,67.164848 92.708130,67.250984 
	C92.203522,66.528992 91.698914,65.806999 90.954315,64.977173 
	C90.658562,64.489372 90.602798,64.109406 90.825851,63.386703 
	C91.382187,62.714653 91.659698,62.385338 92.330666,62.200760 
	C99.474892,62.250328 106.225670,62.155170 112.976440,62.060005 
z"/>
<path fill="#91DCEA" opacity="1.000000" stroke="none" 
	d="
M92.251221,58.024376 
	C96.506912,50.755669 104.716354,49.850502 111.486206,56.323372 
	C111.584030,56.732422 111.492210,57.033024 111.093407,57.023880 
	C104.438560,55.373940 98.290680,55.708858 92.251221,58.024376 
z"/>
<path fill="#174DB2" opacity="1.000000" stroke="none" 
	d="
M98.034821,159.994568 
	C98.060097,158.565674 98.085373,157.136780 98.489014,155.360550 
	C99.243988,155.346817 99.620598,155.680435 99.993744,156.366806 
	C100.060051,158.993652 100.360229,160.295410 103.125023,158.545212 
	C105.084099,157.305023 107.574715,156.904495 110.008827,156.308624 
	C110.671616,156.629761 111.153648,156.771454 111.635674,156.913147 
	C110.106255,158.702728 108.576828,160.492294 106.568161,162.680603 
	C103.834282,163.660339 101.579643,164.241348 99.325005,164.822357 
	C99.150490,164.142822 98.975967,163.463303 98.766037,162.160950 
	C98.498695,161.023605 98.266762,160.509094 98.034821,159.994568 
z"/>
<path fill="#52DDF7" opacity="1.000000" stroke="none" 
	d="
M57.256523,57.054821 
	C57.254448,56.618347 57.252377,56.181877 57.626709,55.271317 
	C58.795448,53.241962 59.587788,51.686691 60.967411,48.978642 
	C62.659969,54.193668 63.895882,58.001698 64.902649,62.077576 
	C62.545601,63.205238 60.417686,64.065056 58.074543,64.883728 
	C57.859314,64.842583 57.429852,64.929886 57.429852,64.929886 
	C57.339031,64.483826 57.248211,64.037766 57.413982,62.982780 
	C57.532555,60.600845 57.394539,58.827831 57.256523,57.054821 
z"/>
<path fill="#3FCAF5" opacity="1.000000" stroke="none" 
	d="
M58.289772,64.924873 
	C60.417686,64.065056 62.545601,63.205238 65.148811,62.150566 
	C65.962944,61.996853 66.301773,62.037991 66.640610,62.079132 
	C66.640610,62.079128 66.844742,62.247013 66.840454,62.665749 
	C67.395546,64.026085 67.954933,64.967674 68.514320,65.909271 
	C69.591789,67.062325 70.669258,68.215378 71.862541,69.690872 
	C68.191444,70.179115 64.404541,70.344902 60.047283,70.745377 
	C59.299480,70.992805 59.122036,71.005539 58.944595,71.018265 
	C58.944595,71.018265 58.697441,70.797340 58.772198,70.234016 
	C58.661224,68.088753 58.475498,66.506813 58.289772,64.924873 
z"/>
<path fill="#279EF5" opacity="1.000000" stroke="none" 
	d="
M85.999908,92.007172 
	C87.825859,91.447029 89.651810,90.886887 92.057236,90.316513 
	C93.517029,90.825645 94.397339,91.345016 95.537598,92.089264 
	C96.840500,93.926292 97.883461,95.538452 98.926414,97.150620 
	C98.926414,97.150620 98.952896,97.582603 98.984749,98.104034 
	C99.032501,99.078491 99.048409,99.531517 98.807426,99.986038 
	C98.379669,99.999084 98.208801,100.010635 97.777611,100.016479 
	C97.343987,100.010902 97.170677,100.011040 96.629089,99.994263 
	C92.840515,97.320625 89.420212,94.663895 85.999908,92.007172 
z"/>
<path fill="#80F1FA" opacity="1.000000" stroke="none" 
	d="
M92.017517,58.263142 
	C98.290680,55.708858 104.438560,55.373940 111.264328,57.109634 
	C111.834061,57.204540 112.214684,57.169052 112.214676,57.169052 
	C112.446213,57.561718 112.677742,57.954384 112.684662,58.694271 
	C112.460060,59.041492 111.977074,59.084236 111.570068,59.134369 
	C107.750885,59.428909 104.332291,59.607224 100.928452,59.937618 
	C97.938843,60.227802 94.965759,60.688366 91.738396,61.049103 
	C91.491409,61.024521 90.995102,61.014519 90.995102,61.014519 
	C91.258003,60.176983 91.520905,59.339447 92.017517,58.263142 
z"/>
<path fill="#A492F8" opacity="1.000000" stroke="none" 
	d="
M137.869934,62.285275 
	C141.398010,61.164143 144.389786,61.256882 145.812347,65.594070 
	C143.102509,71.238136 139.655396,71.681793 135.781372,66.810562 
	C136.287064,65.163467 137.007889,63.875057 137.869934,62.285275 
z"/>
<path fill="#134395" opacity="1.000000" stroke="none" 
	d="
M45.048592,93.967270 
	C45.139908,87.465424 45.231220,80.963577 45.864082,74.233231 
	C47.234306,74.664925 48.062977,75.325119 48.891651,75.985321 
	C48.838715,76.712608 48.785778,77.439903 48.406502,78.671021 
	C48.024845,80.444626 47.969521,81.714401 47.914196,82.984169 
	C47.916336,84.062263 47.918480,85.140366 47.694588,86.928406 
	C46.661896,89.747993 45.855244,91.857628 45.048592,93.967270 
z"/>
<path fill="#4FA9C3" opacity="1.000000" stroke="none" 
	d="
M66.582916,61.715988 
	C66.301773,62.037991 65.962944,61.996853 65.377945,61.882721 
	C63.895882,58.001698 62.659969,54.193668 60.967411,48.978642 
	C59.587788,51.686691 58.795448,53.241962 57.716125,54.955368 
	C58.521893,51.004444 59.614643,46.895386 60.707394,42.786331 
	C61.063217,42.937180 61.419037,43.088024 61.774857,43.238869 
	C63.358311,49.276863 64.941765,55.314854 66.582916,61.715988 
z"/>
<path fill="#B6E9F2" opacity="1.000000" stroke="none" 
	d="
M105.833969,36.123600 
	C103.549744,36.641834 101.516075,37.255306 99.555122,37.075542 
	C98.978577,37.022686 97.889122,33.950912 98.274086,33.591972 
	C99.578934,32.375378 101.893806,30.698334 102.975418,31.164265 
	C104.432884,31.792099 105.103813,34.245831 105.833969,36.123600 
z"/>
<path fill="#44ACDA" opacity="1.000000" stroke="none" 
	d="
M124.760773,129.070892 
	C123.225273,127.912598 121.649475,126.802994 120.169174,125.577995 
	C119.259705,124.825371 118.496315,123.896217 117.299194,122.642731 
	C116.984497,121.489220 117.037926,120.739319 117.091362,119.989418 
	C117.954979,119.231384 118.818588,118.473351 119.987442,118.075851 
	C120.457893,118.719612 120.703873,118.875328 121.030609,118.903534 
	C121.110283,119.227089 121.261147,119.513092 121.731491,120.196487 
	C122.247200,120.910141 122.514610,121.188858 122.782028,121.467575 
	C122.782028,121.467575 122.809593,121.772598 122.928879,122.181999 
	C123.278168,122.907394 123.508163,123.223381 123.738159,123.539375 
	C123.812920,123.877953 123.887680,124.216530 124.091179,125.040627 
	C124.411797,125.815269 124.603676,126.104393 124.795555,126.393509 
	C124.839226,126.763130 124.882896,127.132759 124.936722,128.019928 
	C124.884850,128.715286 124.822807,128.893082 124.760773,129.070892 
z"/>
<path fill="#103584" opacity="1.000000" stroke="none" 
	d="
M91.044724,158.416992 
	C91.166992,154.246399 91.475151,150.385361 91.599480,146.518448 
	C91.651703,144.894226 91.314995,143.257507 91.267899,141.185425 
	C92.857895,147.039429 94.335091,153.334488 95.812286,159.629532 
	C95.235123,159.932861 94.657967,160.236191 94.080811,160.539520 
	C93.105988,159.934402 92.131172,159.329300 91.044724,158.416992 
z"/>
<path fill="#706CCD" opacity="1.000000" stroke="none" 
	d="
M120.769989,79.314667 
	C119.809792,80.974648 118.524376,82.697868 116.806473,84.862289 
	C115.234428,86.527069 114.094872,87.750641 112.670013,89.162735 
	C111.203667,91.886948 110.022621,94.422638 108.841583,96.958313 
	C108.217728,96.983597 107.593872,97.008881 106.660873,97.067245 
	C108.883987,89.470886 114.017868,83.910286 120.769989,79.314667 
z"/>
<path fill="#0B3175" opacity="1.000000" stroke="none" 
	d="
M49.134117,75.711250 
	C48.062977,75.325119 47.234306,74.664925 46.089798,73.904846 
	C46.905590,70.490105 48.037216,67.175247 49.168842,63.860390 
	C49.842949,64.050194 50.517052,64.239998 51.191154,64.429810 
	C53.448383,68.387192 49.993530,71.769272 49.134117,75.711250 
z"/>
<path fill="#2174CC" opacity="1.000000" stroke="none" 
	d="
M98.037926,100.022186 
	C98.208801,100.010635 98.379669,99.999084 99.021049,99.989990 
	C99.491562,99.992439 99.917450,100.027512 99.917450,100.027512 
	C99.965836,100.469734 100.014214,100.911957 100.111877,102.015312 
	C100.441605,103.785873 100.722038,104.895309 100.960419,106.425629 
	C100.836189,108.528542 100.754013,110.210556 100.431625,112.186203 
	C99.795723,114.667282 99.400024,116.854752 99.004318,119.042213 
	C98.021614,115.968315 97.038902,112.894424 96.395920,109.397079 
	C100.995094,106.546333 98.629028,103.155144 98.037926,100.022186 
z"/>
<path fill="#0F3C88" opacity="1.000000" stroke="none" 
	d="
M47.385246,101.400879 
	C49.252644,101.661011 51.208637,101.793793 52.364849,102.824104 
	C52.981892,103.373947 52.620346,105.741333 51.931686,106.777397 
	C51.492321,107.438408 48.720806,107.561684 48.583725,107.242882 
	C47.831768,105.494125 47.570774,103.534241 47.385246,101.400879 
z"/>
<path fill="#8D83BC" opacity="1.000000" stroke="none" 
	d="
M146.558868,54.557076 
	C145.787033,52.944298 145.258408,51.171291 144.479828,48.559944 
	C143.351303,50.132454 142.747055,50.974438 141.886520,51.971138 
	C141.630249,49.102077 141.630249,46.078304 141.630249,43.054527 
	C142.388519,42.938667 143.146790,42.822807 143.905060,42.706947 
	C144.870728,46.603580 145.836395,50.500217 146.558868,54.557076 
z"/>
<path fill="#061947" opacity="1.000000" stroke="none" 
	d="
M93.406738,167.677521 
	C94.404640,167.234131 95.882156,166.781647 96.008812,167.026886 
	C97.520424,169.953583 98.831215,172.984009 100.194588,175.987274 
	C99.452065,176.382889 98.709534,176.778488 97.967010,177.174103 
	C96.397591,174.113602 94.828178,171.053085 93.406738,167.677521 
z"/>
<path fill="#122D85" opacity="1.000000" stroke="none" 
	d="
M99.292038,165.200317 
	C101.579643,164.241348 103.834282,163.660339 106.423523,162.978180 
	C105.610321,165.867508 104.462517,168.858032 103.314705,171.848541 
	C102.792175,171.892014 102.269646,171.935486 101.747108,171.978958 
	C100.917763,169.845398 100.088417,167.711853 99.292038,165.200317 
z"/>
<path fill="#2E93E3" opacity="1.000000" stroke="none" 
	d="
M86.585670,146.018005 
	C87.990982,149.135513 88.983871,152.257416 89.962372,155.774506 
	C87.606781,153.049362 85.265579,149.929047 82.898865,146.451492 
	C83.973320,146.070312 85.073288,146.046341 86.585670,146.018005 
z"/>
<path fill="#372784" opacity="1.000000" stroke="none" 
	d="
M153.413681,107.305237 
	C152.816254,106.721237 152.213943,106.201859 152.310425,105.945427 
	C152.918610,104.329185 153.681961,102.771324 154.394058,101.194176 
	C155.491119,101.905876 157.369339,102.468758 157.538605,103.357201 
	C158.044174,106.011040 156.806915,107.773140 153.413681,107.305237 
z"/>
<path fill="#1C5091" opacity="1.000000" stroke="none" 
	d="
M63.336296,128.204666 
	C64.027077,127.537849 64.914787,127.132744 65.881073,126.422493 
	C68.359138,128.112625 70.758644,130.107910 74.115204,132.899048 
	C67.909088,134.498398 66.496628,129.946991 63.336296,128.204666 
z"/>
<path fill="#248EE3" opacity="1.000000" stroke="none" 
	d="
M89.222771,131.956650 
	C88.146545,132.006470 87.070328,132.056290 85.597260,132.147934 
	C85.683762,128.408447 86.167107,124.627159 87.081619,120.729263 
	C87.957031,122.086403 88.401268,123.560135 88.845505,125.033875 
	C88.873474,125.771553 88.901443,126.509239 88.784317,127.729584 
	C88.521599,128.580383 88.642555,128.845245 89.002098,129.006836 
	C89.002098,129.006836 89.197151,128.938324 89.195770,129.274780 
	C89.203857,130.393036 89.213310,131.174835 89.222771,131.956650 
z"/>
<path fill="#2881C8" opacity="1.000000" stroke="none" 
	d="
M111.922134,156.716843 
	C111.153648,156.771454 110.671616,156.629761 110.185974,155.990784 
	C110.481552,154.366928 110.780754,153.240356 111.391464,152.102356 
	C112.117676,152.076996 112.532364,152.063080 112.947060,152.049149 
	C115.344490,150.367981 117.741920,148.686829 120.469536,146.942780 
	C117.936012,150.093430 115.072304,153.306976 111.922134,156.716843 
z"/>
<path fill="#36ABE8" opacity="1.000000" stroke="none" 
	d="
M58.920265,71.355713 
	C59.122036,71.005539 59.299480,70.992805 59.743870,70.974731 
	C62.247520,72.083992 64.484230,73.198570 66.827377,74.647781 
	C65.926598,76.514305 64.919373,78.046196 63.870907,79.962219 
	C62.286495,77.937157 60.743320,75.527962 59.166748,72.729218 
	C59.133350,72.339653 59.122070,72.330925 59.122070,72.330925 
	C59.046692,72.118340 58.971313,71.905754 58.920265,71.355713 
z"/>
<path fill="#166BDE" opacity="1.000000" stroke="none" 
	d="
M99.997208,156.014038 
	C99.620598,155.680435 99.243988,155.346817 98.621178,154.952225 
	C98.374977,154.891235 98.162498,154.446945 98.131752,153.975327 
	C98.062584,153.336029 98.024162,153.168365 97.985748,153.000687 
	C98.044769,152.564499 98.103798,152.128311 98.355133,151.130096 
	C98.966873,149.620468 99.386322,148.672882 99.805756,147.725296 
	C100.049774,148.956863 100.293793,150.188446 100.652054,151.996597 
	C102.741058,151.294525 104.498398,150.703903 106.626450,150.055176 
	C106.997177,149.997070 107.013031,150.014038 106.943787,150.350388 
	C104.582108,152.462509 102.289658,154.238281 99.997208,156.014038 
z"/>
<path fill="#271D68" opacity="1.000000" stroke="none" 
	d="
M158.670029,71.724129 
	C157.331818,71.408394 156.030853,70.727455 154.399353,70.028793 
	C153.406326,68.316437 152.743820,66.621811 151.883301,64.420700 
	C157.699066,64.291466 157.335098,68.594849 158.670029,71.724129 
z"/>
<path fill="#042354" opacity="1.000000" stroke="none" 
	d="
M89.443588,131.949188 
	C89.213310,131.174835 89.203857,130.393036 89.289841,129.231934 
	C90.456139,128.050369 91.526978,127.248093 92.822762,126.217087 
	C94.053314,127.567024 95.058922,129.145706 96.390610,130.672729 
	C96.379196,131.933640 96.041710,133.246231 95.661667,134.724335 
	C93.607117,133.492935 92.138786,132.612900 90.388016,131.850067 
	C90.105576,131.967285 89.664413,131.941742 89.443588,131.949188 
z"/>
<path fill="#35A2D9" opacity="1.000000" stroke="none" 
	d="
M95.277649,91.864388 
	C94.397339,91.345016 93.517029,90.825645 92.376450,90.144440 
	C90.129089,87.513176 88.141983,85.043739 86.114670,82.229652 
	C88.959938,84.411583 91.845428,86.938164 94.954971,90.024734 
	C95.211906,91.011276 95.244774,91.437836 95.277649,91.864388 
z"/>
<path fill="#06305F" opacity="1.000000" stroke="none" 
	d="
M89.065414,124.780487 
	C88.401268,123.560135 87.957031,122.086403 87.264404,120.402328 
	C85.879021,120.402557 84.742020,120.613129 83.301529,120.894684 
	C84.153473,119.404076 85.308914,117.842484 86.464355,116.280899 
	C87.326408,117.899498 88.339493,119.459946 88.993591,121.158630 
	C89.382675,122.169075 89.207047,123.396973 89.065414,124.780487 
z"/>
<path fill="#0B3175" opacity="1.000000" stroke="none" 
	d="
M45.044510,94.298798 
	C45.855244,91.857628 46.661896,89.747993 47.674946,87.332291 
	C48.143208,89.371056 48.849285,91.780838 48.519123,94.039124 
	C48.277477,95.691963 46.826538,98.115883 45.044510,94.298798 
z"/>
<path fill="#042354" opacity="1.000000" stroke="none" 
	d="
M99.046112,119.380905 
	C99.400024,116.854752 99.795723,114.667282 100.720444,112.301544 
	C101.802597,112.401268 102.355728,112.679268 102.908859,112.957275 
	C102.970940,114.350594 103.033020,115.743904 103.055794,117.553223 
	C101.951897,118.924492 100.887299,119.879745 99.534111,120.955353 
	C99.192986,120.623665 99.140442,120.171623 99.046112,119.380905 
z"/>
<path fill="#35A2D9" opacity="1.000000" stroke="none" 
	d="
M80.401291,78.929764 
	C78.401039,77.139999 76.751183,75.361748 75.085556,73.230103 
	C77.377396,74.660660 79.685013,76.444588 82.072906,78.554237 
	C81.686012,78.900398 81.218842,78.920837 80.401291,78.929764 
z"/>
<path fill="#042354" opacity="1.000000" stroke="none" 
	d="
M95.537590,92.089264 
	C95.244774,91.437836 95.211906,91.011276 95.197723,90.263901 
	C96.474449,92.088692 97.732483,94.234299 98.958466,96.765259 
	C97.883461,95.538452 96.840500,93.926292 95.537590,92.089264 
z"/>
<path fill="#042354" opacity="1.000000" stroke="none" 
	d="
M101.002472,106.004738 
	C100.722038,104.895309 100.441605,103.785873 100.213058,102.334030 
	C101.418053,102.092010 102.571144,102.192406 103.943054,102.064987 
	C104.355652,102.603775 104.549431,103.370384 104.687721,104.460815 
	C104.163338,105.053368 103.694443,105.322090 102.745911,105.799377 
	C101.845001,106.006874 101.423737,106.005806 101.002472,106.004738 
z"/>
<path fill="#082856" opacity="1.000000" stroke="none" 
	d="
M124.875793,129.445007 
	C124.822807,128.893082 124.884850,128.715286 125.052834,128.275787 
	C125.464279,130.583710 125.769775,133.153290 125.702286,135.497787 
	C125.232376,134.495026 125.135460,133.717346 125.038528,132.939682 
	C125.022629,131.899506 125.006729,130.859314 124.875793,129.445007 
z"/>
<path fill="#4FA9C3" opacity="1.000000" stroke="none" 
	d="
M57.094215,57.348347 
	C57.394539,58.827831 57.532555,60.600845 57.455986,62.641792 
	C57.138233,61.153778 57.035069,59.397823 57.094215,57.348347 
z"/>
<path fill="#121451" opacity="1.000000" stroke="none" 
	d="
M115.476234,113.921036 
	C115.419815,112.285866 115.691399,110.519951 116.238052,108.333778 
	C116.864052,107.812851 117.214973,107.712181 117.565895,107.611511 
	C116.978676,109.671104 116.391449,111.730698 115.476234,113.921036 
z"/>
<path fill="#082856" opacity="1.000000" stroke="none" 
	d="
M121.466164,146.983490 
	C121.749519,145.687698 122.356468,144.300110 123.236595,142.517441 
	C123.509773,142.122345 123.911491,141.922546 123.986221,141.983704 
	C124.060951,142.044861 124.211304,142.166061 124.211304,142.166061 
	C123.404121,143.741287 122.596939,145.316498 121.466164,146.983490 
z"/>
<path fill="#35A2D9" opacity="1.000000" stroke="none" 
	d="
M86.031937,81.592484 
	C84.813736,81.122818 83.513313,80.322861 82.160866,79.182709 
	C83.389137,79.649078 84.669426,80.455643 86.031937,81.592484 
z"/>
<path fill="#082856" opacity="1.000000" stroke="none" 
	d="
M99.805145,147.425934 
	C99.386322,148.672882 98.966873,149.620468 98.338425,150.799637 
	C98.459160,149.407150 98.788910,147.783081 99.410095,146.050385 
	C99.735863,146.336700 99.770195,146.731644 99.805145,147.425934 
z"/>
<path fill="#082856" opacity="1.000000" stroke="none" 
	d="
M102.684357,140.087677 
	C102.623123,141.074280 102.213699,142.139160 101.715446,143.539261 
	C101.307716,143.964432 101.023682,144.118622 100.548302,144.429657 
	C100.993454,143.070160 101.664818,141.618057 102.684357,140.087677 
z"/>
<path fill="#0B3175" opacity="1.000000" stroke="none" 
	d="
M48.146156,82.708267 
	C47.969521,81.714401 48.024845,80.444626 48.339355,79.029808 
	C48.525066,80.067291 48.451591,81.249832 48.146156,82.708267 
z"/>
<path fill="#372B8D" opacity="1.000000" stroke="none" 
	d="
M119.287994,102.888138 
	C119.883026,101.914268 120.759293,100.822456 121.858368,99.952888 
	C121.243866,101.040154 120.406548,101.905174 119.287994,102.888138 
z"/>
<path fill="#4FA9C3" opacity="1.000000" stroke="none" 
	d="
M58.074539,64.883728 
	C58.475498,66.506813 58.661224,68.088753 58.767197,70.068344 
	C58.203789,68.856468 57.720139,67.246941 57.333168,65.283646 
	C57.429852,64.929886 57.859314,64.842583 58.074539,64.883728 
z"/>
<path fill="#372B8D" opacity="1.000000" stroke="none" 
	d="
M117.610054,107.324478 
	C117.214973,107.712181 116.864052,107.812851 116.238327,107.946709 
	C116.278763,107.313019 116.594002,106.646149 117.153061,105.944038 
	C117.482658,106.285019 117.568436,106.661232 117.610054,107.324478 
z"/>
<path fill="#4FA9C3" opacity="1.000000" stroke="none" 
	d="
M68.468658,65.626900 
	C67.954933,64.967674 67.395546,64.026085 66.842728,62.797882 
	C67.373871,63.455688 67.898438,64.400108 68.468658,65.626900 
z"/>
<path fill="#082856" opacity="1.000000" stroke="none" 
	d="
M116.814774,120.206268 
	C117.037926,120.739319 116.984497,121.489220 116.924728,122.616562 
	C116.563576,123.375313 116.208763,123.756622 115.614059,124.239075 
	C115.762177,123.034523 116.150185,121.728821 116.814774,120.206268 
z"/>
<path fill="#082856" opacity="1.000000" stroke="none" 
	d="
M105.070969,122.149261 
	C105.540466,122.774796 105.775139,123.556679 105.954201,124.653831 
	C105.544441,124.081268 105.190292,123.193428 105.070969,122.149261 
z"/>
<path fill="#5AE7FB" opacity="1.000000" stroke="none" 
	d="
M111.977074,59.084236 
	C111.977074,59.084236 112.460060,59.041492 112.702690,59.040462 
	C113.240158,59.503502 113.534988,59.967571 113.828308,60.719208 
	C113.826797,61.006767 113.359673,60.921570 112.938225,60.733910 
	C112.336876,60.058910 112.156975,59.571575 111.977074,59.084236 
z"/>
<path fill="#8D83BC" opacity="1.000000" stroke="none" 
	d="
M141.068481,54.268600 
	C141.193466,54.694645 141.124405,55.332371 140.837738,56.044899 
	C140.704895,55.573227 140.789658,55.026752 141.068481,54.268600 
z"/>
<path fill="#042354" opacity="1.000000" stroke="none" 
	d="
M100.100388,99.851692 
	C99.917450,100.027512 99.491562,99.992439 99.277939,99.988487 
	C99.048409,99.531517 99.032501,99.078491 99.089775,98.293243 
	C99.536407,98.532631 99.909866,99.104256 100.100388,99.851692 
z"/>
<path fill="#082856" opacity="1.000000" stroke="none" 
	d="
M97.860184,160.162918 
	C98.266762,160.509094 98.498695,161.023605 98.669525,161.823700 
	C98.300789,161.516602 97.993172,160.923935 97.860184,160.162918 
z"/>
<path fill="#372B8D" opacity="1.000000" stroke="none" 
	d="
M143.845520,74.309982 
	C144.185944,73.648048 144.602463,73.253380 145.310287,72.820175 
	C145.318619,73.463295 145.035660,74.144951 144.470917,74.945526 
	C144.099976,74.902046 144.010803,74.739647 143.845520,74.309982 
z"/>
<path fill="#042354" opacity="1.000000" stroke="none" 
	d="
M91.853600,121.167358 
	C92.279755,121.502090 92.529968,122.009315 92.728485,122.807106 
	C92.343735,122.511734 92.010696,121.925797 91.853600,121.167358 
z"/>
<path fill="#042354" opacity="1.000000" stroke="none" 
	d="
M97.460320,127.997604 
	C97.316238,127.513542 97.414833,126.954842 97.721222,126.191467 
	C97.853668,126.632187 97.778328,127.277573 97.460320,127.997604 
z"/>
<path fill="#47ACCC" opacity="1.000000" stroke="none" 
	d="
M90.781067,61.232498 
	C90.995102,61.014519 91.491409,61.024521 91.705429,61.293198 
	C91.919456,61.561878 91.937210,62.056026 91.937210,62.056026 
	C91.659698,62.385338 91.382187,62.714653 90.897949,63.104912 
	C90.649826,62.594070 90.608429,62.022274 90.781067,61.232498 
z"/>
<path fill="#44ACDA" opacity="1.000000" stroke="none" 
	d="
M124.820877,133.180252 
	C125.135460,133.717346 125.232376,134.495026 125.409470,135.657181 
	C125.398392,136.204880 125.307159,136.368103 125.044472,136.753235 
	C124.783089,135.790359 124.693153,134.605591 124.820877,133.180252 
z"/>
<path fill="#082856" opacity="1.000000" stroke="none" 
	d="
M123.907814,140.235519 
	C123.907814,140.235519 124.262619,140.197952 124.438339,140.225098 
	C124.580582,140.691116 124.547112,141.129990 124.362473,141.867462 
	C124.211304,142.166061 124.060951,142.044861 123.992035,141.561935 
	C123.918030,140.797852 123.912926,140.516693 123.907814,140.235519 
z"/>
<path fill="#47ACCC" opacity="1.000000" stroke="none" 
	d="
M112.273468,57.004829 
	C112.214684,57.169052 111.834061,57.204540 111.663132,57.118782 
	C111.492210,57.033024 111.584030,56.732422 111.687531,56.614204 
	C112.069992,56.456226 112.250404,56.571098 112.273468,57.004829 
z"/>
<path fill="#2E93E3" opacity="1.000000" stroke="none" 
	d="
M82.259163,145.268341 
	C82.548454,145.180786 82.737228,145.401199 82.875504,145.912079 
	C82.561127,146.055267 82.339005,145.846512 82.259163,145.268341 
z"/>
<path fill="#1562C7" opacity="1.000000" stroke="none" 
	d="
M89.044571,128.742645 
	C88.642555,128.845245 88.521599,128.580383 88.760834,128.098099 
	C88.950653,128.148788 89.018845,128.313614 89.044571,128.742645 
z"/>
<path fill="#35A2D9" opacity="1.000000" stroke="none" 
	d="
M73.102264,70.868233 
	C73.021866,70.854256 73.070152,70.871552 73.068687,70.891426 
	C73.067223,70.911301 73.182655,70.882210 73.102264,70.868233 
z"/>
<path fill="#2691F3" opacity="1.000000" stroke="none" 
	d="
M63.999237,81.253845 
	C64.293221,81.064728 64.508926,81.175026 64.822372,81.463333 
	C64.946289,81.590240 64.516998,81.776627 64.308006,81.881462 
	C64.048386,81.824905 63.997757,81.663521 63.999237,81.253845 
z"/>
<path fill="#082856" opacity="1.000000" stroke="none" 
	d="
M124.797867,126.130188 
	C124.603676,126.104393 124.411797,125.815269 124.235382,125.259987 
	C124.433952,125.284836 124.617065,125.575851 124.797867,126.130188 
z"/>
<path fill="#082856" opacity="1.000000" stroke="none" 
	d="
M123.720276,123.241653 
	C123.508163,123.223381 123.278168,122.907394 123.033951,122.293411 
	C123.247292,122.311584 123.474838,122.627754 123.720276,123.241653 
z"/>
<path fill="#082856" opacity="1.000000" stroke="none" 
	d="
M97.847717,153.093964 
	C98.024162,153.168365 98.062584,153.336029 98.029190,153.751465 
	C97.609619,153.801163 97.527061,153.530502 97.847717,153.093964 
z"/>
<path fill="#082856" opacity="1.000000" stroke="none" 
	d="
M125.138557,138.917053 
	C124.963966,138.815704 124.938179,138.640717 125.039062,138.232727 
	C125.472626,138.245407 125.513161,138.526642 125.138557,138.917053 
z"/>
<path fill="#082856" opacity="1.000000" stroke="none" 
	d="
M122.728523,121.177368 
	C122.514610,121.188858 122.247200,120.910141 121.928543,120.341042 
	C122.143204,120.329498 122.409111,120.608330 122.728523,121.177368 
z"/>
<path fill="#4FA9C3" opacity="1.000000" stroke="none" 
	d="
M59.056038,72.284073 
	C59.122070,72.330925 59.133350,72.339653 59.133240,72.347702 
	C59.133125,72.355751 58.990005,72.237213 59.056038,72.284073 
z"/>
<path fill="#082856" opacity="1.000000" stroke="none" 
	d="
M120.953476,118.703125 
	C120.703873,118.875328 120.457893,118.719612 120.248917,118.215591 
	C120.493904,118.078186 120.717636,118.247498 120.953476,118.703125 
z"/>
<path fill="#2691F3" opacity="1.000000" stroke="none" 
	d="
M85.754944,91.783234 
	C89.420212,94.663895 92.840515,97.320625 96.543579,100.322113 
	C95.749977,101.517204 94.673607,102.367546 93.597237,103.217896 
	C87.185989,98.682205 80.735191,94.200981 74.380592,89.587257 
	C71.323090,87.367386 68.447067,84.897545 65.399368,82.227615 
	C73.626175,81.814064 80.652084,84.416374 85.754944,91.783234 
z"/>
<path fill="#2391F1" opacity="1.000000" stroke="none" 
	d="
M93.676659,103.563843 
	C94.673607,102.367546 95.749977,101.517204 96.911858,100.339020 
	C97.170677,100.011040 97.343987,100.010902 97.777611,100.016479 
	C98.629028,103.155144 100.995094,106.546333 96.341942,109.021400 
	C95.217514,107.349380 94.486794,105.629585 93.676659,103.563843 
z"/>
<path fill="#031231" opacity="1.000000" stroke="none" 
	d="
M100.960419,106.425629 
	C101.423737,106.005806 101.845001,106.006874 102.581467,106.020157 
	C102.915161,108.052643 102.933655,110.072906 102.930504,112.525223 
	C102.355728,112.679268 101.802597,112.401268 100.960648,112.007919 
	C100.754013,110.210556 100.836189,108.528542 100.960419,106.425629 
z"/>
<path fill="#756BF5" opacity="1.000000" stroke="none" 
	d="
M138.885681,81.124466 
	C137.481644,83.104324 135.681747,85.058235 133.586121,87.144180 
	C130.138794,87.859604 126.987221,88.442978 123.468018,88.677094 
	C123.410675,87.229309 123.720978,86.130775 124.031281,85.032242 
	C128.414520,82.117470 133.202637,80.690826 138.885681,81.124466 
z"/>
<path fill="#756BF5" opacity="1.000000" stroke="none" 
	d="
M108.964165,97.280151 
	C110.022621,94.422638 111.203667,91.886948 112.924469,89.423180 
	C115.344772,90.020805 117.225311,90.546524 119.105858,91.072235 
	C117.148041,93.338905 115.368942,95.811150 113.131538,97.756218 
	C112.389084,98.401672 110.468636,97.692078 108.964165,97.280151 
z"/>
<path fill="#7F75FB" opacity="1.000000" stroke="none" 
	d="
M119.382904,90.926727 
	C117.225311,90.546524 115.344772,90.020805 113.209778,89.234650 
	C114.094872,87.750641 115.234428,86.527069 116.643616,85.148895 
	C118.990013,85.000084 121.066788,85.005882 123.587418,85.021965 
	C123.720978,86.130775 123.410675,87.229309 123.050491,88.668381 
	C121.887054,89.599693 120.773499,90.190460 119.382904,90.926727 
z"/>
<path fill="#2896F1" opacity="1.000000" stroke="none" 
	d="
M119.012337,134.568573 
	C115.158157,135.632324 111.309044,136.274200 107.017700,136.910950 
	C109.152168,133.714081 111.728859,130.522339 114.577194,127.152374 
	C119.039970,127.736755 119.351074,130.754379 119.012337,134.568573 
z"/>
<path fill="#166BDE" opacity="1.000000" stroke="none" 
	d="
M113.026947,151.700928 
	C112.532364,152.063080 112.117676,152.076996 111.270798,151.756683 
	C109.563416,150.952972 108.288223,150.483505 107.013031,150.014038 
	C107.013031,150.014038 106.997177,149.997070 106.988068,149.987350 
	C108.462051,146.107758 110.771973,143.608215 115.725151,144.967896 
	C115.085068,147.134125 114.095947,149.243423 113.026947,151.700928 
z"/>
<path fill="#44ACDA" opacity="1.000000" stroke="none" 
	d="
M123.786682,140.089737 
	C123.912926,140.516693 123.918030,140.797852 123.917313,141.500778 
	C123.911491,141.922546 123.509773,142.122345 123.297508,142.196075 
	C123.278679,141.494522 123.472107,140.719238 123.786682,140.089737 
z"/>
<path fill="#248EE3" opacity="1.000000" stroke="none" 
	d="
M84.989441,134.183685 
	C85.354340,134.839005 85.481018,135.695618 85.447479,136.779465 
	C85.108582,136.132782 84.929901,135.258896 84.989441,134.183685 
z"/>
<path fill="#41DBFD" opacity="1.000000" stroke="none" 
	d="
M92.777969,67.597099 
	C95.501534,67.164848 98.294930,67.078705 101.827965,67.228210 
	C105.130371,68.023033 107.693146,68.582207 110.255920,69.141380 
	C109.052727,72.884323 106.130836,74.134010 102.594658,74.030113 
	C98.249634,73.902466 94.668892,72.255920 92.777969,67.597099 
z"/>
<path fill="#6AF2FE" opacity="1.000000" stroke="none" 
	d="
M92.330666,62.200760 
	C91.937210,62.056026 91.919456,61.561878 91.952423,61.317780 
	C94.965759,60.688366 97.938843,60.227802 100.928452,59.937618 
	C104.332291,59.607224 107.750885,59.428909 111.570068,59.134369 
	C112.156975,59.571575 112.336876,60.058910 112.700821,60.731010 
	C112.913109,61.105194 112.941338,61.294609 112.973007,61.772018 
	C106.225670,62.155170 99.474892,62.250328 92.330666,62.200760 
z"/>
<path fill="#4DE2FC" opacity="1.000000" stroke="none" 
	d="
M110.560242,69.036880 
	C107.693146,68.582207 105.130371,68.023033 102.283661,67.227066 
	C105.166008,66.685539 108.332291,66.380806 111.921104,66.131195 
	C111.850601,67.101662 111.357574,68.017021 110.560242,69.036880 
z"/>
<path fill="#155CD4" opacity="1.000000" stroke="none" 
	d="
M106.943787,150.350388 
	C108.288223,150.483505 109.563416,150.952972 110.959274,151.768127 
	C110.780754,153.240356 110.481552,154.366928 110.005203,155.811325 
	C107.574715,156.904495 105.084099,157.305023 103.125023,158.545212 
	C100.360229,160.295410 100.060051,158.993652 99.993744,156.366806 
	C102.289658,154.238281 104.582108,152.462509 106.943787,150.350388 
z"/>
</svg>