<svg version="1.1" id="Layer_1" xmlns="http://www.w3.org/2000/svg" xmlns:xlink="http://www.w3.org/1999/xlink" x="0px" y="0px"
	 width="100%" viewBox="0 0 2048 2048" enable-background="new 0 0 2048 2048" xml:space="preserve">
<path fill="#FFECE8" opacity="1.000000" stroke="none" 
	d="
M987.000000,2049.000000 
	C658.000000,2049.000000 329.500000,2049.000000 1.000000,2049.000000 
	C1.000000,1366.333374 1.000000,683.666687 1.000000,1.000000 
	C683.666687,1.000000 1366.333374,1.000000 2049.000000,1.000000 
	C2049.000000,683.666687 2049.000000,1366.333374 2049.000000,2049.000000 
	C1695.166626,2049.000000 1341.333374,2049.000000 987.000000,2049.000000 
M1617.188110,964.395813 
	C1616.518311,948.079529 1615.936890,931.759094 1615.161865,915.447815 
	C1613.009888,870.155884 1609.264893,825.008545 1601.916260,780.232239 
	C1598.678955,760.506958 1595.198120,740.736023 1586.739014,722.421082 
	C1563.319458,671.715637 1523.237183,642.759277 1468.403320,635.209778 
	C1432.467041,630.262085 1396.263794,626.801270 1360.067505,624.312927 
	C1317.023560,621.353821 1273.876831,619.187378 1230.742920,618.390930 
	C1146.779175,616.840881 1062.792969,615.782043 978.816650,615.822571 
	C885.489990,615.867676 792.209412,618.673706 699.055176,624.847900 
	C664.297791,627.151672 629.560852,629.761841 595.299011,636.220032 
	C532.633789,648.032166 492.055084,684.757019 475.152832,746.269897 
	C464.836487,783.814392 460.805481,822.565552 458.359314,861.303711 
	C455.293762,909.850769 452.519531,958.467773 451.665375,1007.090515 
	C450.476471,1074.765137 453.769714,1142.366089 460.180084,1209.771973 
	C463.051239,1239.962402 466.687012,1270.094116 474.117126,1299.551270 
	C488.696625,1357.353027 524.354797,1395.860718 582.439270,1410.072754 
	C611.378296,1417.153687 641.555542,1420.491211 671.372437,1422.398560 
	C737.539246,1426.631348 803.822754,1429.120239 870.078003,1431.849731 
	C897.710571,1432.988037 925.391174,1433.231323 953.052185,1433.349243 
	C1010.376282,1433.593506 1067.721436,1434.443237 1125.021851,1433.275269 
	C1198.484497,1431.777832 1271.922974,1428.829102 1345.349731,1425.939331 
	C1387.472656,1424.281494 1429.465332,1420.599121 1471.154053,1414.034912 
	C1501.341675,1409.281738 1528.348145,1397.622559 1551.036499,1376.833008 
	C1575.293701,1354.605713 1590.134033,1327.085083 1596.972900,1294.991333 
	C1605.466187,1255.134766 1609.742432,1214.726685 1612.698242,1174.182983 
	C1617.766113,1104.666138 1619.794189,1035.058350 1617.188110,964.395813 
z"/>
<path fill="#FF3000" opacity="1.000000" stroke="none" 
	d="
M1617.200439,964.879822 
	C1619.794189,1035.058350 1617.766113,1104.666138 1612.698242,1174.182983 
	C1609.742432,1214.726685 1605.466187,1255.134766 1596.972900,1294.991333 
	C1590.134033,1327.085083 1575.293701,1354.605713 1551.036499,1376.833008 
	C1528.348145,1397.622559 1501.341675,1409.281738 1471.154053,1414.034912 
	C1429.465332,1420.599121 1387.472656,1424.281494 1345.349731,1425.939331 
	C1271.922974,1428.829102 1198.484497,1431.777832 1125.021851,1433.275269 
	C1067.721436,1434.443237 1010.376282,1433.593506 953.052185,1433.349243 
	C925.391174,1433.231323 897.710571,1432.988037 870.078003,1431.849731 
	C803.822754,1429.120239 737.539246,1426.631348 671.372437,1422.398560 
	C641.555542,1420.491211 611.378296,1417.153687 582.439270,1410.072754 
	C524.354797,1395.860718 488.696625,1357.353027 474.117126,1299.551270 
	C466.687012,1270.094116 463.051239,1239.962402 460.180084,1209.771973 
	C453.769714,1142.366089 450.476471,1074.765137 451.665375,1007.090515 
	C452.519531,958.467773 455.293762,909.850769 458.359314,861.303711 
	C460.805481,822.565552 464.836487,783.814392 475.152832,746.269897 
	C492.055084,684.757019 532.633789,648.032166 595.299011,636.220032 
	C629.560852,629.761841 664.297791,627.151672 699.055176,624.847900 
	C792.209412,618.673706 885.489990,615.867676 978.816650,615.822571 
	C1062.792969,615.782043 1146.779175,616.840881 1230.742920,618.390930 
	C1273.876831,619.187378 1317.023560,621.353821 1360.067505,624.312927 
	C1396.263794,626.801270 1432.467041,630.262085 1468.403320,635.209778 
	C1523.237183,642.759277 1563.319458,671.715637 1586.739014,722.421082 
	C1595.198120,740.736023 1598.678955,760.506958 1601.916260,780.232239 
	C1609.264893,825.008545 1613.009888,870.155884 1615.161865,915.447815 
	C1615.936890,931.759094 1616.518311,948.079529 1617.200439,964.879822 
M1194.780640,1040.248169 
	C1203.529175,1035.191284 1212.277710,1030.134521 1221.539917,1024.780762 
	C1120.253052,966.097656 1019.685486,907.831238 918.698975,849.322083 
	C918.698975,966.752075 918.698975,1083.070190 918.698975,1199.858887 
	C920.477295,1198.886353 921.782959,1198.207397 923.055542,1197.471313 
	C1013.428162,1145.200806 1103.798096,1092.925781 1194.780640,1040.248169 
z"/>
<path fill="#FFFEFE" opacity="1.000000" stroke="none" 
	d="
M1194.474365,1040.449585 
	C1103.798096,1092.925781 1013.428162,1145.200806 923.055542,1197.471313 
	C921.782959,1198.207397 920.477295,1198.886353 918.698975,1199.858887 
	C918.698975,1083.070190 918.698975,966.752075 918.698975,849.322083 
	C1019.685486,907.831238 1120.253052,966.097656 1221.539917,1024.780762 
	C1212.277710,1030.134521 1203.529175,1035.191284 1194.474365,1040.449585 
z"/>
</svg>