<svg version="1.1" id="Layer_1" xmlns="http://www.w3.org/2000/svg" xmlns:xlink="http://www.w3.org/1999/xlink" x="0px" y="0px"
	 width="100%" viewBox="0 0 980 980" enable-background="new 0 0 980 980" xml:space="preserve">
<path fill="#000000" opacity="1.000000" stroke="none" 
	d="
M519.000000,981.000000 
	C346.000000,981.000000 173.500000,981.000000 1.000000,981.000000 
	C1.000000,654.333313 1.000000,327.666656 1.000000,1.000000 
	C327.666656,1.000000 654.333313,1.000000 981.000000,1.000000 
	C981.000000,327.666656 981.000000,654.333313 981.000000,981.000000 
	C827.166687,981.000000 673.333313,981.000000 519.000000,981.000000 
M120.382050,399.443268 
	C120.289558,400.266479 120.116188,401.089722 120.116066,401.912933 
	C120.102554,492.691315 120.096642,583.469727 120.144745,674.248108 
	C120.145576,675.824280 120.806129,677.400085 121.023369,679.911072 
	C121.083778,688.583801 121.144188,697.256470 121.385345,706.753113 
	C122.254341,715.908875 122.989349,725.079834 124.023079,734.216980 
	C125.657578,748.664185 129.874786,762.416626 135.940170,775.588684 
	C144.883011,795.009644 157.379929,811.677307 173.860321,825.479980 
	C188.968460,838.133423 205.916061,847.036682 224.594589,853.035339 
	C242.324478,858.729370 260.715820,859.377258 279.947357,860.956543 
	C321.587311,860.958435 363.227234,860.960327 405.440735,861.616455 
	C406.430878,861.710327 407.421021,861.886169 408.411163,861.886353 
	C497.064178,861.899414 585.717224,861.904175 674.370239,861.858337 
	C675.953369,861.857544 677.536255,861.239197 680.029846,860.988647 
	C688.662903,860.924194 697.295898,860.859741 706.752930,860.614746 
	C715.905762,859.745850 725.073303,859.007690 734.207947,857.977966 
	C748.641541,856.350769 762.369751,852.113953 775.545837,846.096619 
	C795.040039,837.193787 811.685425,824.613342 825.497375,808.109558 
	C838.134094,793.010132 847.035828,776.060486 853.030273,757.396423 
	C858.722473,739.673584 859.388733,721.283691 860.956604,702.053101 
	C860.958984,661.744751 860.961426,621.436340 861.618469,580.555969 
	C861.712219,579.232971 861.887817,577.909973 861.888000,576.586975 
	C861.900879,487.137573 861.905701,397.688202 861.855469,308.238831 
	C861.854492,306.495544 861.192444,304.752686 860.976257,302.077667 
	C860.916016,293.408630 860.855713,284.739594 860.614502,275.246735 
	C859.745605,266.093231 859.007507,256.924957 857.977844,247.789566 
	C856.349548,233.343582 852.112610,219.601990 846.071838,206.423218 
	C837.150940,186.961105 824.598999,170.310394 808.111206,156.499283 
	C793.010437,143.850006 776.063049,134.954926 757.385498,128.958206 
	C739.658691,123.266739 721.275757,122.632584 702.052856,121.043457 
	C665.704224,121.084030 629.355652,121.124611 592.238525,120.798286 
	C590.467224,120.565559 588.695923,120.129837 586.924561,120.129204 
	C494.133301,120.096237 401.342072,120.094612 308.550842,120.138672 
	C306.658203,120.139572 304.765839,120.716850 301.960693,120.998589 
	C293.621582,121.063560 285.282440,121.128525 276.109070,121.114487 
	C275.010773,121.407890 273.927094,121.871948 272.811859,121.967491 
	C264.450806,122.683731 256.062347,123.132324 247.722870,124.036957 
	C233.449478,125.585281 219.835251,129.749741 206.828079,135.684021 
	C187.204391,144.636978 170.335281,157.228607 156.453369,173.929688 
	C143.877838,189.059113 134.952896,205.976303 128.961945,224.630875 
	C123.272438,242.346786 122.621025,260.727417 121.043533,279.947144 
	C121.041298,319.588470 121.039062,359.229767 120.382050,399.443268 
z"/>
<path fill="#33D850" opacity="1.000000" stroke="none" 
	d="
M279.021790,860.814697 
	C260.715820,859.377258 242.324478,858.729370 224.594589,853.035339 
	C205.916061,847.036682 188.968460,838.133423 173.860321,825.479980 
	C157.379929,811.677307 144.883011,795.009644 135.940170,775.588684 
	C129.874786,762.416626 125.657578,748.664185 124.023079,734.216980 
	C122.989349,725.079834 122.254341,715.908875 121.460312,705.971802 
	C121.409798,696.452393 121.284317,687.714233 121.158844,678.976074 
	C120.806129,677.400085 120.145576,675.824280 120.144745,674.248108 
	C120.096642,583.469727 120.102554,492.691315 120.116066,401.912933 
	C120.116188,401.089722 120.289558,400.266479 120.907120,398.811676 
	C121.621033,396.540527 121.973351,394.901123 121.974709,393.261414 
	C122.004562,357.138184 122.008133,321.014862 121.959496,284.891693 
	C121.956863,282.934601 121.454979,280.978210 121.185501,279.021484 
	C122.621025,260.727417 123.272438,242.346786 128.961945,224.630875 
	C134.952896,205.976303 143.877838,189.059113 156.453369,173.929688 
	C170.335281,157.228607 187.204391,144.636978 206.828079,135.684021 
	C219.835251,129.749741 233.449478,125.585281 247.722870,124.036957 
	C256.062347,123.132324 264.450806,122.683731 272.811859,121.967491 
	C273.927094,121.871948 275.010773,121.407890 276.908325,121.321960 
	C286.096161,121.361359 294.484772,121.193291 302.873352,121.025223 
	C304.765839,120.716850 306.658203,120.139572 308.550842,120.138672 
	C401.342072,120.094612 494.133301,120.096237 586.924561,120.129204 
	C588.695923,120.129837 590.467224,120.565559 592.995483,121.156464 
	C595.233398,121.675644 596.714172,121.976074 598.195251,121.977180 
	C631.332214,122.001907 664.469116,122.006226 697.606018,121.957352 
	C699.397217,121.954712 701.187683,121.454178 702.978455,121.185425 
	C721.275757,122.632584 739.658691,123.266739 757.385498,128.958206 
	C776.063049,134.954926 793.010437,143.850006 808.111206,156.499283 
	C824.598999,170.310394 837.150940,186.961105 846.071838,206.423218 
	C852.112610,219.601990 856.349548,233.343582 857.977844,247.789566 
	C859.007507,256.924957 859.745605,266.093231 860.539612,276.027985 
	C860.589417,285.542694 860.714111,294.276154 860.838806,303.009613 
	C861.192444,304.752686 861.854492,306.495544 861.855469,308.238831 
	C861.905701,397.688202 861.900879,487.137573 861.888000,576.586975 
	C861.887817,577.909973 861.712219,579.232971 861.093323,581.187500 
	C860.379089,583.458618 860.026184,585.098083 860.024902,586.737732 
	C859.997192,623.527832 859.995789,660.317993 860.045776,697.108032 
	C860.048462,699.065247 860.546936,701.021790 860.814575,702.978638 
	C859.388733,721.283691 858.722473,739.673584 853.030273,757.396423 
	C847.035828,776.060486 838.134094,793.010132 825.497375,808.109558 
	C811.685425,824.613342 795.040039,837.193787 775.545837,846.096619 
	C762.369751,852.113953 748.641541,856.350769 734.207947,857.977966 
	C725.073303,859.007690 715.905762,859.745850 705.971680,860.539673 
	C696.500000,860.612793 687.809570,860.760925 679.119202,860.909058 
	C677.536255,861.239197 675.953369,861.857544 674.370239,861.858337 
	C585.717224,861.904175 497.064178,861.899414 408.411163,861.886353 
	C407.421021,861.886169 406.430878,861.710327 404.809143,861.091309 
	C402.537811,860.377808 400.898193,860.026123 399.258301,860.024963 
	C361.135620,859.997803 323.012848,859.996704 284.890198,860.046448 
	C282.933746,860.049011 280.977905,860.547241 279.021790,860.814697 
M377.325928,279.852417 
	C358.103485,290.466125 340.622742,303.431091 324.985077,318.843628 
	C248.653152,394.076813 231.587982,509.215912 282.650482,603.419067 
	C283.940094,605.798218 284.826813,609.229004 284.165833,611.706238 
	C275.450378,644.369568 266.412018,676.946655 257.481995,709.552856 
	C255.578918,716.501526 253.785706,723.480347 251.785553,731.035828 
	C253.936447,730.717651 255.081833,730.656433 256.168793,730.371826 
	C294.350983,720.375977 332.551819,710.449158 370.676117,700.236755 
	C375.702606,698.890320 379.711914,699.361145 384.385651,701.657776 
	C446.498566,732.180481 510.541809,736.470093 575.320862,712.218445 
	C703.753906,664.136292 765.300659,520.243896 710.746155,394.331726 
	C679.760803,322.817261 625.016541,276.742371 549.377747,257.568604 
	C489.805817,242.467651 432.319916,250.427734 377.325928,279.852417 
z"/>
<path fill="#4FCC66" opacity="1.000000" stroke="none" 
	d="
M279.484558,860.885620 
	C280.977905,860.547241 282.933746,860.049011 284.890198,860.046448 
	C323.012848,859.996704 361.135620,859.997803 399.258301,860.024963 
	C400.898193,860.026123 402.537811,860.377808 404.522369,860.764221 
	C363.227234,860.960327 321.587311,860.958435 279.484558,860.885620 
z"/>
<path fill="#4FCC66" opacity="1.000000" stroke="none" 
	d="
M860.885620,702.515869 
	C860.546936,701.021790 860.048462,699.065247 860.045776,697.108032 
	C859.995789,660.317993 859.997192,623.527832 860.024902,586.737732 
	C860.026184,585.098083 860.379089,583.458618 860.765991,581.473511 
	C860.961426,621.436340 860.958984,661.744751 860.885620,702.515869 
z"/>
<path fill="#4FCC66" opacity="1.000000" stroke="none" 
	d="
M121.114517,279.484314 
	C121.454979,280.978210 121.956863,282.934601 121.959496,284.891693 
	C122.008133,321.014862 122.004562,357.138184 121.974709,393.261414 
	C121.973351,394.901123 121.621033,396.540527 121.234505,398.525574 
	C121.039062,359.229767 121.041298,319.588470 121.114517,279.484314 
z"/>
<path fill="#4FCC67" opacity="1.000000" stroke="none" 
	d="
M702.515625,121.114441 
	C701.187683,121.454178 699.397217,121.954712 697.606018,121.957352 
	C664.469116,122.006226 631.332214,122.001907 598.195251,121.977180 
	C596.714172,121.976074 595.233398,121.675644 593.379761,121.339905 
	C629.355652,121.124611 665.704224,121.084030 702.515625,121.114441 
z"/>
<path fill="#4BCA64" opacity="1.000000" stroke="none" 
	d="
M860.907532,302.543640 
	C860.714111,294.276154 860.589417,285.542694 860.630066,276.439880 
	C860.855713,284.739594 860.916016,293.408630 860.907532,302.543640 
z"/>
<path fill="#4CCA64" opacity="1.000000" stroke="none" 
	d="
M121.091110,679.443604 
	C121.284317,687.714233 121.409798,696.452393 121.369934,705.559875 
	C121.144188,697.256470 121.083778,688.583801 121.091110,679.443604 
z"/>
<path fill="#4BCA64" opacity="1.000000" stroke="none" 
	d="
M679.574524,860.948853 
	C687.809570,860.760925 696.500000,860.612793 705.559692,860.630005 
	C697.295898,860.859741 688.662903,860.924194 679.574524,860.948853 
z"/>
<path fill="#4DC964" opacity="1.000000" stroke="none" 
	d="
M302.417023,121.011902 
	C294.484772,121.193291 286.096161,121.361359 277.325439,121.361465 
	C285.282440,121.128525 293.621582,121.063560 302.417023,121.011902 
z"/>
<path fill="#FAFDFA" opacity="1.000000" stroke="none" 
	d="
M377.642151,279.665283 
	C432.319916,250.427734 489.805817,242.467651 549.377747,257.568604 
	C625.016541,276.742371 679.760803,322.817261 710.746155,394.331726 
	C765.300659,520.243896 703.753906,664.136292 575.320862,712.218445 
	C510.541809,736.470093 446.498566,732.180481 384.385651,701.657776 
	C379.711914,699.361145 375.702606,698.890320 370.676117,700.236755 
	C332.551819,710.449158 294.350983,720.375977 256.168793,730.371826 
	C255.081833,730.656433 253.936447,730.717651 251.785553,731.035828 
	C253.785706,723.480347 255.578918,716.501526 257.481995,709.552856 
	C266.412018,676.946655 275.450378,644.369568 284.165833,611.706238 
	C284.826813,609.229004 283.940094,605.798218 282.650482,603.419067 
	C231.587982,509.215912 248.653152,394.076813 324.985077,318.843628 
	C340.622742,303.431091 358.103485,290.466125 377.642151,279.665283 
M671.711975,572.141663 
	C692.122681,527.269348 696.852356,480.625275 681.993591,433.750580 
	C656.539856,353.452087 601.335815,305.127380 517.743713,292.969025 
	C453.295074,283.595093 396.888611,303.886871 351.152039,350.130646 
	C286.851746,415.143890 275.744019,511.664246 321.857056,590.625549 
	C323.129791,592.804993 323.650269,596.009094 323.213928,598.506958 
	C320.233582,615.567566 316.892029,632.564880 313.690063,649.587036 
	C312.170502,657.665466 310.701843,665.753540 309.122162,674.313782 
	C311.279236,674.093323 312.589722,674.052002 313.863983,673.815491 
	C337.933960,669.347473 361.980408,664.746765 386.091064,660.511475 
	C389.045807,659.992432 392.767303,660.615479 395.409332,662.046387 
	C417.777405,674.161011 441.429199,682.109558 466.691986,685.344177 
	C552.199585,696.292114 634.822693,650.898682 671.711975,572.141663 
z"/>
<path fill="#34D851" opacity="1.000000" stroke="none" 
	d="
M671.540405,572.477051 
	C634.822693,650.898682 552.199585,696.292114 466.691986,685.344177 
	C441.429199,682.109558 417.777405,674.161011 395.409332,662.046387 
	C392.767303,660.615479 389.045807,659.992432 386.091064,660.511475 
	C361.980408,664.746765 337.933960,669.347473 313.863983,673.815491 
	C312.589722,674.052002 311.279236,674.093323 309.122162,674.313782 
	C310.701843,665.753540 312.170502,657.665466 313.690063,649.587036 
	C316.892029,632.564880 320.233582,615.567566 323.213928,598.506958 
	C323.650269,596.009094 323.129791,592.804993 321.857056,590.625549 
	C275.744019,511.664246 286.851746,415.143890 351.152039,350.130646 
	C396.888611,303.886871 453.295074,283.595093 517.743713,292.969025 
	C601.335815,305.127380 656.539856,353.452087 681.993591,433.750580 
	C696.852356,480.625275 692.122681,527.269348 671.540405,572.477051 
M451.564240,503.914459 
	C445.167145,494.381500 438.746277,484.864380 432.384796,475.307709 
	C429.884247,471.551208 430.079376,467.610260 432.617096,464.066345 
	C435.321259,460.289917 438.485718,456.845795 441.389679,453.209076 
	C444.395844,449.444336 447.972504,445.942261 450.077026,441.716370 
	C451.547272,438.764099 452.141754,434.380981 451.094696,431.335938 
	C445.518677,415.120117 439.576416,399.012634 433.100037,383.137268 
	C431.608917,379.482056 428.042450,375.978699 424.534576,373.974243 
	C414.870422,368.451935 399.483276,370.865021 391.333710,378.455383 
	C369.773895,398.535767 363.478973,423.081757 370.289398,451.329742 
	C374.661377,469.463684 384.514099,484.906036 394.358154,500.429962 
	C425.572052,549.653625 467.236908,585.559143 523.104797,604.425842 
	C547.491882,612.661438 570.362610,613.743958 592.891602,599.035522 
	C608.465027,588.868164 613.731934,574.191101 614.160095,556.905457 
	C614.221436,554.430176 612.350525,550.712341 610.272949,549.567810 
	C593.649048,540.409485 576.873596,531.504944 559.896973,523.018250 
	C552.995361,519.568176 550.685669,520.826233 545.735046,526.712219 
	C539.624817,533.976929 533.236938,541.007507 527.017517,548.181335 
	C524.068420,551.583069 520.398132,552.581665 516.198547,551.436951 
	C513.484619,550.697083 510.742767,549.816040 508.253845,548.532227 
	C486.715149,537.422058 467.381317,523.465698 451.564240,503.914459 
z"/>
<path fill="#FAFDFB" opacity="1.000000" stroke="none" 
	d="
M451.789459,504.189301 
	C467.381317,523.465698 486.715149,537.422058 508.253845,548.532227 
	C510.742767,549.816040 513.484619,550.697083 516.198547,551.436951 
	C520.398132,552.581665 524.068420,551.583069 527.017517,548.181335 
	C533.236938,541.007507 539.624817,533.976929 545.735046,526.712219 
	C550.685669,520.826233 552.995361,519.568176 559.896973,523.018250 
	C576.873596,531.504944 593.649048,540.409485 610.272949,549.567810 
	C612.350525,550.712341 614.221436,554.430176 614.160095,556.905457 
	C613.731934,574.191101 608.465027,588.868164 592.891602,599.035522 
	C570.362610,613.743958 547.491882,612.661438 523.104797,604.425842 
	C467.236908,585.559143 425.572052,549.653625 394.358154,500.429962 
	C384.514099,484.906036 374.661377,469.463684 370.289398,451.329742 
	C363.478973,423.081757 369.773895,398.535767 391.333710,378.455383 
	C399.483276,370.865021 414.870422,368.451935 424.534576,373.974243 
	C428.042450,375.978699 431.608917,379.482056 433.100037,383.137268 
	C439.576416,399.012634 445.518677,415.120117 451.094696,431.335938 
	C452.141754,434.380981 451.547272,438.764099 450.077026,441.716370 
	C447.972504,445.942261 444.395844,449.444336 441.389679,453.209076 
	C438.485718,456.845795 435.321259,460.289917 432.617096,464.066345 
	C430.079376,467.610260 429.884247,471.551208 432.384796,475.307709 
	C438.746277,484.864380 445.167145,494.381500 451.789459,504.189301 
z"/>
</svg>